<?xml version="1.0" encoding="utf-8"?>
<!-- Generator: Adobe Illustrator 23.1.1, SVG Export Plug-In . SVG Version: 6.00 Build 0)  -->
<svg version="1.1" id="Layer_1" xmlns="http://www.w3.org/2000/svg" xmlns:xlink="http://www.w3.org/1999/xlink" x="0px" y="0px"
	 viewBox="0 0 616.5 617" style="enable-background:new 0 0 616.5 617;" xml:space="preserve">
<style type="text/css">
	.st0{fill:#5468FF;}
	.st1{fill:#FFFFFF;}
</style>
<g>
	<path class="st0" d="M81.2,0.3h454.2c44.7,0,81.2,36.3,81.2,81.2v454.2c0,44.7-36.3,81.1-81.2,81.1H81.2
		C36.5,616.8,0,580.5,0,535.6V81.2C0,36.5,36.3,0.3,81.2,0.3"/>
	<path class="st1" d="M372.5,137.9v-21.1c0-14.8-12-26.7-26.8-26.7h-62.4c-14.8,0-26.8,12-26.8,26.7v21.7c0,2.4,2.2,4.1,4.7,3.5
		c17.7-5.1,35.9-7.7,54.3-7.7c17.8,0,35.4,2.4,52.5,7.1C370.3,142,372.5,140.3,372.5,137.9z M201.5,165.5l-10.7-10.7
		c-10.4-10.4-27.4-10.5-37.8,0c0,0,0,0,0,0l-12.7,12.7c-10.4,10.4-10.5,27.2-0.1,37.7c0,0,0.1,0.1,0.1,0.1l10.5,10.5
		c1.7,1.7,4.1,1.3,5.6-0.4c6.2-8.5,13-16.5,20.4-23.9c7.5-7.5,15.5-14.4,24.1-20.6C202.8,169.9,203,167.2,201.5,165.5L201.5,165.5z
		 M315.4,232.7v91.4c0,2.6,2.8,4.5,5.2,3.2l81.3-42.1c1.8-0.9,2.4-3.2,1.5-5c-16.9-29.6-48.1-49.8-84.3-51.1
		C317.2,229.1,315.4,230.6,315.4,232.7L315.4,232.7z M315.4,453c-67.8,0-122.9-55-122.9-122.7s55.1-122.7,122.9-122.7
		c67.8,0,122.9,55,122.9,122.7S383.4,453,315.4,453z M315.4,156C219.1,156,141,234,141,330.3c0,96.3,78.1,174.1,174.4,174.1
		s174.4-78,174.4-174.3S411.8,156,315.4,156L315.4,156z"/>
</g>
</svg>
