<?xml version="1.0" encoding="UTF-8"?>
<svg width="49px" height="49px" viewBox="0 0 49 49" version="1.1" xmlns="http://www.w3.org/2000/svg" xmlns:xlink="http://www.w3.org/1999/xlink">
    <title>Group 44</title>
    <g id="Page-1" stroke="none" stroke-width="1" fill="none" fill-rule="evenodd">
        <g id="Index" transform="translate(-638.000000, -4193.000000)">
            <g id="Group-4" transform="translate(117.500000, 3779.000000)">
                <g id="Group-23" transform="translate(0.000000, 95.328422)">
                    <g id="Group-44" transform="translate(521.358749, 319.579120)">
                        <rect id="Rectangle-Copy-13" fill="#DC5642" x="2.4158453e-13" y="3.87956334e-12" width="46.4871963" height="46.4871963" rx="6.19829284"></rect>
                        <g id="Group" transform="translate(12.898771, 7.572020)" fill-rule="nonzero">
                            <path d="M10.3448276,29.8359256 C12.3793103,29.8359256 14.137931,28.1807532 14.137931,26.0428221 L6.55172414,26.0428221 C6.55172414,28.1807532 8.31034483,29.8359256 10.3448276,29.8359256 Z" id="Path" fill="#FFBE9B"></path>
                            <path d="M13.4482759,23.9738566 L7.24137931,23.9738566 C6.86206897,23.9738566 6.55172414,24.2842015 6.55172414,24.6635118 C6.55172414,25.0428221 6.86206897,25.353167 7.24137931,25.353167 L13.4482759,25.353167 C13.8275862,25.353167 14.137931,25.0428221 14.137931,24.6635118 C14.137931,24.2842015 13.8275862,23.9738566 13.4482759,23.9738566 Z" id="Path" fill="#FFBE9B"></path>
                            <path d="M10.3448276,0.671578299 C4.62068966,0.671578299 7.99360578e-14,5.29226795 7.99360578e-14,11.0164059 C7.99360578e-14,14.9129576 2.13793103,18.292268 5.31034483,20.0508886 C5.75862069,21.7750266 7.34482759,23.0853714 9.24137931,23.0853714 L11.4827586,23.0853714 C13.3448276,23.0853714 14.9310345,21.7750266 15.4137931,20.0508886 C18.5517241,18.292268 20.6896552,14.9129576 20.6896552,11.0164059 C20.6896552,5.29226795 16.0689655,0.671578299 10.3448276,0.671578299 Z" id="Path" fill="#FAEBD5"></path>
                        </g>
                    </g>
                </g>
            </g>
        </g>
    </g>
</svg>