<?xml version="1.0" encoding="UTF-8"?>
<svg width="49px" height="49px" viewBox="0 0 49 49" version="1.1" xmlns="http://www.w3.org/2000/svg" xmlns:xlink="http://www.w3.org/1999/xlink">
    <title>Group 40</title>
    <g id="Page-1" stroke="none" stroke-width="1" fill="none" fill-rule="evenodd">
        <g id="Index" transform="translate(-146.000000, -3910.000000)">
            <g id="Group-4" transform="translate(117.500000, 3779.000000)">
                <g id="Group-23" transform="translate(0.000000, 95.328422)">
                    <g id="Group-40" transform="translate(29.792966, 36.782009)">
                        <rect id="Rectangle" fill="#D0F0FD" x="2.4158453e-13" y="3.87956334e-12" width="46.4871963" height="46.4871963" rx="6.19829284"></rect>
                        <path d="M38.9739622,25.7691397 C41.2679736,24.1305601 42.7017307,21.8775132 42.7017307,19.3786793 C42.7017307,14.3400471 36.8847732,10.2435982 29.7159875,10.2435982 C25.6195386,10.2435982 22.0146635,11.5544618 19.5977586,13.6436508 C22.4243084,14.0532957 25.0050712,14.995479 27.0942602,16.4702006 C30.0846679,18.5593896 31.7232475,21.4269038 31.7232475,24.540205 C31.7232475,25.9329977 31.3955316,27.2438614 30.7810643,28.472796 C31.7232475,28.4318316 32.6244663,28.3089381 33.5256851,28.1041156 C34.9184777,28.9643699 37.3763471,30.3161981 40.0390389,31.0125944 C40.8583287,31.2174168 41.5137605,30.2752336 41.0221867,29.5788373 C40.0390389,28.3089381 39.3426426,26.6703585 38.9739622,25.7691397 Z" id="Path" fill="#0D1FA1" fill-rule="nonzero"></path>
                        <path d="M16.7712088,15.4051239 C9.60242312,15.4051239 3.78546559,19.5015728 3.78546559,24.540205 C3.78546559,27.0390389 5.21922273,29.2920858 7.51323415,30.9306654 C7.14455374,31.8318842 6.44815742,33.4704638 5.50597415,34.7813274 C5.01440028,35.4777238 5.62886762,36.419907 6.48912191,36.2150846 C9.15181373,35.5186883 11.5687186,34.1668601 13.0024758,33.3066058 C14.190446,33.5523928 15.5013096,33.7162507 16.8121733,33.7162507 C23.980959,33.7162507 29.7979165,29.6198018 29.7979165,24.5811695 C29.7979165,19.4606083 23.980959,15.4051239 16.7712088,15.4051239 Z" id="Path" fill="#2600FE" fill-rule="nonzero"></path>
                    </g>
                </g>
            </g>
        </g>
    </g>
</svg>