<?xml version="1.0" encoding="UTF-8"?>
<svg width="48px" height="49px" viewBox="0 0 48 49" version="1.1" xmlns="http://www.w3.org/2000/svg" xmlns:xlink="http://www.w3.org/1999/xlink">
    <title>Group 42</title>
    <g id="Page-1" stroke="none" stroke-width="1" fill="none" fill-rule="evenodd">
        <g id="Index" transform="translate(-638.000000, -3910.000000)">
            <g id="Group-4" transform="translate(117.500000, 3779.000000)">
                <g id="Group-23" transform="translate(0.000000, 95.328422)">
                    <g id="Group-42" transform="translate(521.000000, 36.671578)">
                        <g id="Group-41">
                            <rect id="Rectangle-Copy-11" fill="#0D1FA1" x="0.358749179" y="0.110430893" width="46.4871963" height="46.4871963" rx="6.19829284"></rect>
                            <path d="M24.9142,9.73649787 C25.8208672,9.96350448 26.3183787,10.4324702 26.5005277,11.3228255 L26.5005277,11.3228255 L26.6024768,13.2884038 C26.6486937,13.5140511 26.8158902,13.6894035 27.0347409,13.7587289 C27.653232,13.9558304 28.2499739,14.2018675 28.8208888,14.5049961 C28.9160412,14.5539317 29.0193496,14.5797588 29.122658,14.5797588 C29.240919,14.5797588 29.3591799,14.5457758 29.4624883,14.479169 L29.4624883,14.479169 L31.4770021,13.1470344 C31.7978019,12.933621 32.1634593,12.8303126 32.5291166,12.8303126 C33.0225502,12.8303126 33.5119057,13.0206175 33.8830004,13.3903529 L33.8830004,13.3903529 L34.8549149,14.3636267 C35.4965145,15.0052263 35.5984636,16.0124832 35.0968741,16.769625 L35.0968741,16.769625 L33.7647395,18.7814202 C33.6369633,18.9758031 33.6301667,19.2177623 33.7389124,19.4216604 C34.0406816,19.9952939 34.2880781,20.5933952 34.4851796,21.2091676 C34.5531457,21.4293776 34.7298574,21.5965741 34.956864,21.6414317 L34.956864,21.6414317 L36.9781744,22.1239907 C37.8685297,22.3047804 38.5074106,23.0891086 38.5074106,23.9984944 L38.5074106,23.9984944 L38.5074106,25.3809239 C38.5074106,26.2903097 37.8685297,27.0732786 36.9781744,27.2554277 L36.9781744,27.2554277 L34.956864,27.7379866 C34.7298574,27.7814849 34.5531457,27.9500407 34.4851796,28.1688914 C34.2880781,28.7860232 34.0406816,29.3841244 33.7389124,29.9550393 C33.6301667,30.1602968 33.6369633,30.4036152 33.7647395,30.5979982 L33.7647395,30.5979982 L35.0968741,32.6097933 C35.5984636,33.3669352 35.4965145,34.3728327 34.8549149,35.0157916 L34.8549149,35.0157916 L33.8830004,35.9890655 C33.5132651,36.3588008 33.0225502,36.5491057 32.5291166,36.5491057 C32.1648186,36.5491057 31.7978019,36.444438 31.4770021,36.2323839 L31.4770021,36.2323839 L29.4624883,34.9002493 C29.3591799,34.8322833 29.2422783,34.7983002 29.1240174,34.7983002 C29.020709,34.7983002 28.9160412,34.8241273 28.8208888,34.8744222 C28.2499739,35.1761915 27.653232,35.4235879 27.0347409,35.6206895 C26.8158902,35.6886555 26.6486937,35.8653673 26.6024768,36.0896552 L26.6024768,36.0896552 L26.1212771,38.112325 C25.9391281,39.0026803 25.1547999,39.6415612 24.2481327,39.6415612 L24.2481327,39.6415612 L22.8616252,39.6415612 C21.9549581,39.6415612 21.1706298,39.0026803 20.9884808,38.112325 L20.9884808,38.112325 L20.5072812,36.0896552 C20.4610643,35.8653673 20.2938678,35.6886555 20.0750171,35.6206895 C19.456526,35.4235879 18.859784,35.1761915 18.2888692,34.8744222 C18.1937167,34.8241273 18.089049,34.7983002 17.9857406,34.7983002 C17.8674797,34.7983002 17.7505781,34.8322833 17.6472697,34.9002493 L17.6472697,34.9002493 L15.6327559,36.2323839 C15.3119561,36.444438 14.9449394,36.5491057 14.5806414,36.5491057 C14.0872078,36.5491057 13.5964929,36.3588008 13.2281169,35.9890655 L13.2281169,35.9890655 L12.2562023,35.0157916 C11.6132435,34.3728327 11.5112944,33.3669352 12.0128839,32.6097933 L12.0128839,32.6097933 L13.3450185,30.5979982 C13.4727947,30.4036152 13.4795913,30.1602968 13.3708456,29.9550393 C13.0690763,29.3841244 12.8216799,28.7860232 12.6245784,28.1688914 C12.5566123,27.9500407 12.3799006,27.7814849 12.1528939,27.7379866 L12.1528939,27.7379866 L10.1315835,27.2554277 C9.24122824,27.0732786 8.60234734,26.2903097 8.60234734,25.3809239 L8.60234734,25.3809239 L8.60234734,23.9984944 C8.60234734,23.0891086 9.24122824,22.3047804 10.1315835,22.1239907 L10.1315835,22.1239907 L12.1528939,21.6414317 C12.3799006,21.5965741 12.5566123,21.4293776 12.6245784,21.2091676 C12.8216799,20.5933952 13.0690763,19.9952939 13.3708456,19.4216604 C13.4795913,19.2177623 13.4727947,18.9758031 13.3450185,18.7814202 L13.3450185,18.7814202 L12.0128839,16.769625 C11.5112944,16.0124832 11.6132435,15.0052263 12.2562023,14.3636267 L12.2562023,14.3636267 L13.2281169,13.3903529 C13.5978522,13.0206175 14.0872078,12.8303126 14.5806414,12.8303126 C14.9462987,12.8303126 15.3119561,12.933621 15.6327559,13.1470344 L15.6327559,13.1470344 L17.6472697,14.479169 C17.7505781,14.5457758 17.868839,14.5797588 17.9870999,14.5797588 C18.0904083,14.5797588 18.1937167,14.5539317 18.2888692,14.5049961 C18.859784,14.2018675 19.456526,13.9558304 20.0750171,13.7587289 C20.2938678,13.6894035 20.4610643,13.5140511 20.5072812,13.2884038 L20.5072812,13.2884038 L20.6948675,11.3364188 C20.8770165,10.4460635 21.2752976,9.93495874 22.2947884,9.73649787 L22.2947884,9.73649787 Z M23.554879,21.3662447 C21.7273473,21.3662447 20.2320942,22.8614979 20.2320942,24.6890295 C20.2320942,26.5165612 21.7273473,28.0118143 23.554879,28.0118143 C25.3824106,28.0118143 26.8776638,26.5165612 26.8776638,24.6890295 C26.8776638,22.8614979 25.3824106,21.3662447 23.554879,21.3662447 Z" id="Combined-Shape" fill="#D0F0FD"></path>
                            <path d="M23.554879,16.9042194 C27.8365246,16.9042194 31.3396891,20.4073839 31.3396891,24.6890295 C31.3396891,28.9706751 27.8365246,32.4738396 23.554879,32.4738396 C19.2732334,32.4738396 15.7700689,28.9706751 15.7700689,24.6890295 C15.7700689,20.4073839 19.2732334,16.9042194 23.554879,16.9042194 Z M23.554879,21.3662447 C21.7273473,21.3662447 20.2320942,22.8614979 20.2320942,24.6890295 C20.2320942,26.5165612 21.7273473,28.0118143 23.554879,28.0118143 C25.3824106,28.0118143 26.8776638,26.5165612 26.8776638,24.6890295 C26.8776638,22.8614979 25.3824106,21.3662447 23.554879,21.3662447 Z" id="Combined-Shape" fill="#83B7CC"></path>
                        </g>
                        <g id="Settings-icon-active" transform="translate(8.602347, 9.064920)"></g>
                    </g>
                </g>
            </g>
        </g>
    </g>
</svg>