<?xml version="1.0" encoding="UTF-8"?>
<svg width="36px" height="36px" viewBox="0 0 36 36" version="1.1" xmlns="http://www.w3.org/2000/svg" xmlns:xlink="http://www.w3.org/1999/xlink">
    <title>Artboard</title>
    <g id="Artboard" stroke="none" stroke-width="1" fill="none" fill-rule="evenodd">
        <g id="Group-22">
            <rect id="Rectangle-Copy-7" fill="#FAEBD5" x="0" y="0" width="36" height="36" rx="9.29743926"></rect>
            <path d="M14.835675,30.9088086 L23.5751089,25.4062021 C23.7430303,25.3004738 23.8449092,25.1159367 23.8449092,24.9175026 L23.8449092,20.8647448 L23.8449092,20.8647448 C30.0379852,16.8574603 28.5807909,7.385697 28.5807909,7.385697 C18.744729,5.92850264 15.1017431,12.4858772 15.1017431,12.4858772 L11.0628869,12.1493059 C10.8570329,12.1321514 10.6576924,12.2262541 10.5401121,12.3960923 L4.72372388,20.797542 C4.54217752,21.0597756 4.60758748,21.4195304 4.86982111,21.6010768 C4.94855004,21.6555814 5.03959642,21.6896543 5.13476566,21.7002286 L10.7301601,22.3219391 L10.7301601,22.3219391 C11.8230558,24.5077306 13.6445488,25.2363278 13.6445488,25.2363278 L13.9514719,30.4540211 C13.970201,30.7724152 14.2434932,31.0153417 14.5618873,30.9966126 C14.6590928,30.9908946 14.7532743,30.9606905 14.835675,30.9088086 Z" id="Fill-1-Copy-2" fill="#DB7944" fill-rule="nonzero" transform="translate(16.451397, 19.301904) rotate(-360.000000) translate(-16.451397, -19.301904) "></path>
            <path d="M14.835675,30.9088086 L23.5751089,25.4062021 C23.7430303,25.3004738 23.8449092,25.1159367 23.8449092,24.9175026 L23.8449092,20.8647448 L23.8449092,20.8647448 C23.8449092,20.8647448 13.6445488,25.2363278 13.6445488,25.2363278 L13.9514719,30.4540211 C13.970201,30.7724152 14.2434932,31.0153417 14.5618873,30.9966126 C14.6590928,30.9908946 14.7532743,30.9606905 14.835675,30.9088086 Z" id="Fill-1-Copy-2" fill="#D40A0A" fill-rule="nonzero" transform="translate(18.744729, 26.147074) rotate(-360.000000) translate(-18.744729, -26.147074) "></path>
            <path d="M15.1017431,12.4858772 L11.0628869,12.1493059 C10.8570329,12.1321514 10.6576924,12.2262541 10.5401121,12.3960923 L4.72372388,20.797542 C4.54217752,21.0597756 4.60758748,21.4195304 4.86982111,21.6010768 C4.94855004,21.6555814 5.03959642,21.6896543 5.13476566,21.7002286 L10.7301601,22.3219391 L10.7301601,22.3219391 C10.7301601,22.3219391 15.1017431,12.4858772 15.1017431,12.4858772 Z" id="Fill-1-Copy-2" fill="#D40A0A" fill-rule="nonzero" transform="translate(9.637264, 17.221759) rotate(-360.000000) translate(-9.637264, -17.221759) "></path>
        </g>
    </g>
</svg>