<?xml version="1.0" encoding="UTF-8"?> <svg xmlns="http://www.w3.org/2000/svg" width="139" height="39" viewBox="0 0 139 39" fill="none"> <path d="M21.136 14.312H19.632V15.112C19.632 17.32 19.36 20.408 19.024 22.76L17.792 18.472H16.544L15.296 22.76C14.848 19.752 14.704 16.824 14.704 15.112V14.312H13.104V15.112C13.104 17.72 13.424 21.752 14.224 25H15.92L17.168 20.776L18.4 25H20.096C20.288 24.136 21.136 20.056 21.136 15.08V14.312ZM23.93 14.312V25H30.538V23.56H25.53V20.136H29.69V18.696H25.53V15.752H30.362V14.312H23.93ZM40.9804 25V23.56H35.4924V14.312H33.8924V25H40.9804ZM49.3575 19.656C49.3575 18.264 49.0855 16.936 48.4455 15.88C47.5815 14.472 46.4295 14.152 45.5975 14.152C43.6455 14.152 41.8375 15.976 41.8375 19.656C41.8375 23.336 43.6455 25.16 45.5975 25.16C47.6455 25.16 49.3575 23.224 49.3575 19.656ZM47.6935 19.656C47.6935 23.16 46.2535 23.688 45.5975 23.688C44.9255 23.688 43.5015 23.16 43.5015 19.656C43.5015 16.152 44.9255 15.624 45.5975 15.624C45.9815 15.624 46.7495 15.784 47.2455 16.952C47.5015 17.56 47.6935 18.392 47.6935 19.656ZM58.7439 14.312H57.1279L54.9199 22.744L52.6799 14.312H50.9839L53.8479 25H55.8799L58.7439 14.312ZM61.025 14.312V25H67.633V23.56H62.625V20.136H66.785V18.696H62.625V15.752H67.457V14.312H61.025ZM77.5314 25V14.312H76.0114V21.576L72.3474 14.312H70.5874V25H72.1074V17.448L75.8994 25H77.5314ZM87.7338 19.656C87.7338 18.264 87.4618 16.936 86.8218 15.88C85.9578 14.472 84.8058 14.152 83.9738 14.152C82.0218 14.152 80.2138 15.976 80.2138 19.656C80.2138 23.336 82.0218 25.16 83.9738 25.16C86.0218 25.16 87.7338 23.224 87.7338 19.656ZM86.0698 19.656C86.0698 23.16 84.6298 23.688 83.9738 23.688C83.3018 23.688 81.8778 23.16 81.8778 19.656C81.8778 16.152 83.3018 15.624 83.9738 15.624C84.3578 15.624 85.1258 15.784 85.6218 16.952C85.8778 17.56 86.0698 18.392 86.0698 19.656ZM94.9921 22.36C94.9601 22.744 94.7841 23.16 94.5441 23.384C94.3201 23.592 93.9361 23.704 93.6321 23.704C92.6081 23.704 92.1601 22.888 91.9361 22.12C91.8721 21.896 91.6481 21.096 91.6481 19.624C91.6481 18.92 91.6961 17.72 92.0321 16.872C92.3521 16.088 92.8321 15.624 93.6481 15.624C94.0641 15.624 94.3521 15.768 94.5281 15.928C94.7521 16.136 94.9121 16.456 94.9121 16.824H96.5441C96.5281 15.576 95.7921 14.904 95.7121 14.824C95.3281 14.472 94.6721 14.152 93.6801 14.152C92.5761 14.152 91.4401 14.504 90.6881 15.88C90.0801 17.016 89.9841 18.76 89.9841 19.688C89.9841 20.648 90.0961 22.168 90.5921 23.224C91.2001 24.52 92.1441 25.16 93.6961 25.16C94.7201 25.16 95.3921 24.84 95.7761 24.488C96.3521 23.96 96.6401 23.048 96.6561 22.36H94.9921ZM105.641 19.656C105.641 18.264 105.369 16.936 104.729 15.88C103.865 14.472 102.713 14.152 101.881 14.152C99.9286 14.152 98.1206 15.976 98.1206 19.656C98.1206 23.336 99.9286 25.16 101.881 25.16C103.929 25.16 105.641 23.224 105.641 19.656ZM103.977 19.656C103.977 23.16 102.537 23.688 101.881 23.688C101.209 23.688 99.7846 23.16 99.7846 19.656C99.7846 16.152 101.209 15.624 101.881 15.624C102.265 15.624 103.033 15.784 103.529 16.952C103.785 17.56 103.977 18.392 103.977 19.656ZM108.723 14.312V25H110.067C112.035 25 113.379 24.088 114.083 23.288C114.931 22.312 115.363 20.968 115.363 19.704C115.363 18.184 114.803 16.808 113.987 15.928C113.203 15.08 111.827 14.312 110.179 14.312H108.723ZM110.323 15.784C111.571 15.832 112.403 16.456 112.851 17C113.267 17.496 113.699 18.344 113.699 19.656C113.699 20.808 113.347 21.688 112.867 22.28C112.483 22.76 111.683 23.464 110.323 23.528V15.784ZM118.589 14.312V25H125.197V23.56H120.189V20.136H124.349V18.696H120.189V15.752H125.021V14.312H118.589Z" fill="#0047FF"></path> <rect x="0.75" y="0.75" width="137.5" height="37.5" rx="9.25" stroke="#0047FF" stroke-width="1.5"></rect> </svg> 