<?xml version="1.0" encoding="UTF-8"?>
<svg width="49px" height="49px" viewBox="0 0 49 49" version="1.1" xmlns="http://www.w3.org/2000/svg" xmlns:xlink="http://www.w3.org/1999/xlink">
    <title>Group 43</title>
    <g id="Page-1" stroke="none" stroke-width="1" fill="none" fill-rule="evenodd">
        <g id="Index" transform="translate(-146.000000, -4193.000000)">
            <g id="Group-4" transform="translate(117.500000, 3779.000000)">
                <g id="Group-23" transform="translate(0.000000, 95.328422)">
                    <g id="Group-43" transform="translate(29.792966, 319.579120)">
                        <rect id="Rectangle-Copy-12" fill="#1FAD6C" x="2.4158453e-13" y="3.87956334e-12" width="46.4871963" height="46.4871963" rx="6.19829284"></rect>
                        <g id="Group-9-Copy" transform="translate(8.243598, 7.572020)" fill="#D0F0FD">
                            <path d="M12.2226694,20.7675134 L8.32814604,20.7675134 C7.79070183,20.7675134 7.35451521,20.3313268 7.35451521,19.7938826 C7.35451521,19.2564383 7.79070183,18.8202517 8.32814604,18.8202517 L12.2226694,18.8202517 C12.7610872,18.8202517 13.1963002,19.2564383 13.1963002,19.7938826 C13.1963002,20.3313268 12.7610872,20.7675134 12.2226694,20.7675134 L12.2226694,20.7675134 Z M3.89423124,14.2110834 L3.89423124,30.260414 L15.6196673,30.260414 L15.6196673,22.5463369 C15.6196673,20.7538826 17.0723245,19.3012254 18.8647789,19.3012254 C20.6572333,19.3012254 22.1098905,20.7538826 22.1098905,22.5463369 L22.1098905,30.260414 L25.3141095,30.260414 L25.3141095,14.2110834 L3.89423124,14.2110834 Z" id="Fill-1" opacity="0.75"></path>
                            <path d="M9.31531034,0.671773026 L8.18395132,8.8405357 C7.91195132,10.804771 6.27888465,12.2840808 4.31725746,12.380519 L4.11320081,12.3855256 C1.18257201,12.3855256 -0.80558215,9.40524159 0.31896146,6.6995215 L2.82411359,0.671773026 L9.31531034,0.671773026 Z M17.8497688,0.671773026 L18.8253469,7.7130712 C19.1670913,10.182199 17.2490385,12.3855256 14.75557,12.3855256 L14.4537444,12.3855256 C11.9602759,12.3855256 10.0412495,10.182199 10.3839675,7.7130712 L11.3595456,0.671773026 L17.8497688,0.671773026 Z M26.384714,0.671773026 L28.8898661,6.6995215 C29.9899631,9.34642158 28.111226,12.2560778 25.2853962,12.3813336 L25.0956268,12.3855256 C23.0441866,12.3855256 21.3062556,10.8725032 21.0248763,8.8405357 L19.8935172,0.671773026 L26.384714,0.671773026 Z" id="Combined-Shape"></path>
                        </g>
                    </g>
                </g>
            </g>
        </g>
    </g>
</svg>