<svg width="64" height="64" viewBox="0 0 64 64" fill="none" xmlns="http://www.w3.org/2000/svg">
<path d="M55 11V4C55 2.895 54.105 2 53 2H11C9.895 2 9 2.895 9 4V11H55Z" fill="#0205D3"/>
<path d="M62.781 22.375L55.28 13H8.72L1.22 22.375C1.077 22.553 1 22.772 1 23C1 27.411 4.589 31 9 31C11.072 31 13.022 30.211 14.5 28.804C15.978 30.211 17.928 31 20 31C22.339 31 24.496 30.006 26 28.285C27.504 30.006 29.661 31 32 31C34.339 31 36.496 30.006 38 28.285C39.504 30.006 41.661 31 44 31C46.072 31 48.022 30.211 49.5 28.804C50.978 30.211 52.928 31 55 31C59.411 31 63 27.411 63 23C63 22.772 62.923 22.553 62.781 22.375Z" fill="#0205D3"/>
<path d="M55 33C53.021 33 51.119 32.424 49.5 31.352C47.881 32.424 45.979 33 44 33C41.813 33 39.711 32.287 38 31C36.289 32.287 34.187 33 32 33C29.813 33 27.711 32.287 26 31C24.289 32.287 22.187 33 20 33C18.021 33 16.119 32.424 14.5 31.352C12.881 32.424 10.979 33 9 33C8.315 33 7.646 32.93 7 32.798V60C7 61.105 7.895 62 9 62H36C36.552 62 37 61.552 37 61V45H47V61C47 61.552 47.448 62 48 62H55C56.105 62 57 61.105 57 60V32.798C56.354 32.93 55.685 33 55 33ZM26 49C26 49.553 25.552 50 25 50H17C16.448 50 16 49.553 16 49V41C16 40.447 16.448 40 17 40H25C25.552 40 26 40.447 26 41V49Z" fill="#0205D3"/>
</svg>
