<?xml version="1.0" encoding="UTF-8"?>
<svg width="36px" height="36px" viewBox="0 0 36 36" version="1.1" xmlns="http://www.w3.org/2000/svg" xmlns:xlink="http://www.w3.org/1999/xlink">
    <title>Artboard</title>
    <g id="Artboard" stroke="none" stroke-width="1" fill="none" fill-rule="evenodd">
        <rect id="Rectangle-Copy-6" fill="#D0F0FD" x="0" y="0" width="36" height="36" rx="9.29743926"></rect>
        <rect id="Rectangle" fill="#90DFFF" x="9.55943841" y="9.82445735" width="17" height="17.6082661"></rect>
        <polygon id="Line-33" fill-opacity="0.5" fill="#006DFF" fill-rule="nonzero" points="10.5594384 8.82445735 10.5594384 28.1940845 8.55943841 28.1940845 8.55943841 8.82445735"></polygon>
        <polygon id="Line-33" fill-opacity="0.5" fill="#006DFF" fill-rule="nonzero" points="8.57357312 26.1801468 27.5733761 26.4468581 27.5453037 28.4466611 8.54550073 28.1799498"></polygon>
        <polygon id="Line-33" fill-opacity="0.5" fill="#006DFF" fill-rule="nonzero" points="8.54550073 10.8103226 8.57357312 8.81051966 27.5733761 9.07723094 27.5453037 11.0770339"></polygon>
        <polygon id="Line-33-Copy-3" fill-opacity="0.5" fill="#006DFF" fill-rule="nonzero" points="27.5594384 8.82445735 27.5594384 28.1940845 25.5594384 28.1940845 25.5594384 8.82445735"></polygon>
        <rect id="Rectangle-Copy-15" fill="#FFFFFF" x="6.05943841" y="6.32445735" width="7" height="7" rx="1.8"></rect>
        <rect id="Rectangle-Copy-21" fill="#FFFFFF" x="23.0594384" y="6.32445735" width="7" height="7" rx="1.8"></rect>
        <path d="M11.2594384,5.42445735 L7.85943841,5.42445735 C6.36826959,5.42445735 5.15943841,6.63328852 5.15943841,8.12445735 L5.15943841,11.5244573 C5.15943841,13.0156262 6.36826959,14.2244573 7.85943841,14.2244573 L11.2594384,14.2244573 C12.7506072,14.2244573 13.9594384,13.0156262 13.9594384,11.5244573 L13.9594384,8.12445735 C13.9594384,6.63328852 12.7506072,5.42445735 11.2594384,5.42445735 Z M7.85943841,7.22445735 L11.2594384,7.22445735 C11.7564947,7.22445735 12.1594384,7.62740107 12.1594384,8.12445735 L12.1594384,11.5244573 C12.1594384,12.0215136 11.7564947,12.4244573 11.2594384,12.4244573 L7.85943841,12.4244573 C7.36238214,12.4244573 6.95943841,12.0215136 6.95943841,11.5244573 L6.95943841,8.12445735 C6.95943841,7.62740107 7.36238214,7.22445735 7.85943841,7.22445735 Z" id="Rectangle-Copy-15" fill="#2600FE" fill-rule="nonzero"></path>
        <path d="M28.2594384,5.42445735 L24.8594384,5.42445735 C23.3682696,5.42445735 22.1594384,6.63328852 22.1594384,8.12445735 L22.1594384,11.5244573 C22.1594384,13.0156262 23.3682696,14.2244573 24.8594384,14.2244573 L28.2594384,14.2244573 C29.7506072,14.2244573 30.9594384,13.0156262 30.9594384,11.5244573 L30.9594384,8.12445735 C30.9594384,6.63328852 29.7506072,5.42445735 28.2594384,5.42445735 Z M24.8594384,7.22445735 L28.2594384,7.22445735 C28.7564947,7.22445735 29.1594384,7.62740107 29.1594384,8.12445735 L29.1594384,11.5244573 C29.1594384,12.0215136 28.7564947,12.4244573 28.2594384,12.4244573 L24.8594384,12.4244573 C24.3623821,12.4244573 23.9594384,12.0215136 23.9594384,11.5244573 L23.9594384,8.12445735 C23.9594384,7.62740107 24.3623821,7.22445735 24.8594384,7.22445735 Z" id="Rectangle-Copy-21" fill="#2600FE" fill-rule="nonzero"></path>
        <rect id="Rectangle-Copy-17" fill="#FFFFFF" x="6.05943841" y="23.9327234" width="7" height="7" rx="1.8"></rect>
        <rect id="Rectangle-Copy-22" fill="#FFFFFF" x="23.0594384" y="23.9327234" width="7" height="7" rx="1.8"></rect>
        <path d="M11.2594384,23.0327234 L7.85943841,23.0327234 C6.36826959,23.0327234 5.15943841,24.2415546 5.15943841,25.7327234 L5.15943841,29.1327234 C5.15943841,30.6238922 6.36826959,31.8327234 7.85943841,31.8327234 L11.2594384,31.8327234 C12.7506072,31.8327234 13.9594384,30.6238922 13.9594384,29.1327234 L13.9594384,25.7327234 C13.9594384,24.2415546 12.7506072,23.0327234 11.2594384,23.0327234 Z M7.85943841,24.8327234 L11.2594384,24.8327234 C11.7564947,24.8327234 12.1594384,25.2356671 12.1594384,25.7327234 L12.1594384,29.1327234 C12.1594384,29.6297797 11.7564947,30.0327234 11.2594384,30.0327234 L7.85943841,30.0327234 C7.36238214,30.0327234 6.95943841,29.6297797 6.95943841,29.1327234 L6.95943841,25.7327234 C6.95943841,25.2356671 7.36238214,24.8327234 7.85943841,24.8327234 Z" id="Rectangle-Copy-17" fill="#2600FE" fill-rule="nonzero"></path>
        <path d="M28.2594384,23.0327234 L24.8594384,23.0327234 C23.3682696,23.0327234 22.1594384,24.2415546 22.1594384,25.7327234 L22.1594384,29.1327234 C22.1594384,30.6238922 23.3682696,31.8327234 24.8594384,31.8327234 L28.2594384,31.8327234 C29.7506072,31.8327234 30.9594384,30.6238922 30.9594384,29.1327234 L30.9594384,25.7327234 C30.9594384,24.2415546 29.7506072,23.0327234 28.2594384,23.0327234 Z M24.8594384,24.8327234 L28.2594384,24.8327234 C28.7564947,24.8327234 29.1594384,25.2356671 29.1594384,25.7327234 L29.1594384,29.1327234 C29.1594384,29.6297797 28.7564947,30.0327234 28.2594384,30.0327234 L24.8594384,30.0327234 C24.3623821,30.0327234 23.9594384,29.6297797 23.9594384,29.1327234 L23.9594384,25.7327234 C23.9594384,25.2356671 24.3623821,24.8327234 24.8594384,24.8327234 Z" id="Rectangle-Copy-22" fill="#2600FE" fill-rule="nonzero"></path>
    </g>
</svg>