<svg width="64" height="64" viewBox="0 0 64 64" fill="none" xmlns="http://www.w3.org/2000/svg">
<g clip-path="url(#clip0_643_11458)">
<path d="M4 48V18C2.93913 18 1.92172 18.4214 1.17157 19.1716C0.421427 19.9217 0 20.9391 0 22L0 54C0 55.0609 0.421427 56.0783 1.17157 56.8284C1.92172 57.5786 2.93913 58 4 58H48C49.0609 58 50.0783 57.5786 50.8284 56.8284C51.5786 56.0783 52 55.0609 52 54H10C8.40919 53.9984 6.88399 53.3658 5.75911 52.2409C4.63424 51.116 4.00159 49.5908 4 48Z" fill="#0205D3"/>
<path d="M10 42V12C8.93913 12 7.92172 12.4214 7.17157 13.1716C6.42143 13.9217 6 14.9391 6 16V48C6 49.0609 6.42143 50.0783 7.17157 50.8284C7.92172 51.5786 8.93913 52 10 52H54C55.0609 52 56.0783 51.5786 56.8284 50.8284C57.5786 50.0783 58 49.0609 58 48H16C14.4092 47.9984 12.884 47.3658 11.7591 46.2409C10.6342 45.116 10.0016 43.5908 10 42Z" fill="#0205D3"/>
<path d="M60 6H16C14.9391 6 13.9217 6.42143 13.1716 7.17157C12.4214 7.92172 12 8.93913 12 10V42C12 43.0609 12.4214 44.0783 13.1716 44.8284C13.9217 45.5786 14.9391 46 16 46H60C61.0609 46 62.0783 45.5786 62.8284 44.8284C63.5786 44.0783 64 43.0609 64 42V10C64 8.93913 63.5786 7.92172 62.8284 7.17157C62.0783 6.42143 61.0609 6 60 6ZM46.524 26.852L33.524 34.852C33.3725 34.9452 33.1988 34.9963 33.0209 35.0001C32.843 35.0038 32.6673 34.96 32.512 34.8731C32.3567 34.7863 32.2274 34.6596 32.1374 34.5061C32.0474 34.3527 32 34.1779 32 34V18C32 17.8221 32.0474 17.6473 32.1374 17.4939C32.2274 17.3404 32.3567 17.2137 32.512 17.1269C32.6673 17.04 32.843 16.9962 33.0209 16.9999C33.1988 17.0037 33.3725 17.0548 33.524 17.148L46.524 25.148C46.6687 25.2377 46.7881 25.3628 46.8709 25.5116C46.9538 25.6603 46.9972 25.8278 46.9972 25.998C46.9972 26.1682 46.9538 26.3357 46.8709 26.4844C46.7881 26.6332 46.6687 26.7583 46.524 26.848V26.852Z" fill="#0205D3"/>
</g>
<defs>
<clipPath id="clip0_643_11458">
<rect width="64" height="64" fill="white"/>
</clipPath>
</defs>
</svg>
