<?xml version="1.0" encoding="UTF-8"?>
<svg width="152px" height="40px" viewBox="0 0 152 40" version="1.1" xmlns="http://www.w3.org/2000/svg" xmlns:xlink="http://www.w3.org/1999/xlink">
    <title>Artboard</title>
    <g id="Artboard" stroke="none" stroke-width="1" fill="none" fill-rule="evenodd">
        <path d="M39.15,20.92 C42.9272265,20.8754662 46.0296905,23.8929924 46.09,27.67 C46.0351403,31.4509338 42.93107,34.4744951 39.15,34.43 C35.3650472,34.4800585 32.254848,31.4548864 32.2,27.67 C32.2603035,23.889041 35.3688919,20.8699084 39.15,20.92 M106.19,20.92 C107.01,20.92 107.81,21.05 108.56,21.32 L99.9,30.53 C99.4702643,29.63794 99.2480442,28.6601717 99.2499872,27.67 C99.3103095,23.8929924 102.412773,20.8754662 106.19,20.92 M12.66,40 C16.16,40 19.41,38.64 21.82,36.18 L21.41,35.78 L21.84,36.16 L26.9,30.74 C28.4164654,36.2437347 33.4413234,40.0421172 39.15,40 C42.85,40 46.19,38.43 48.51,35.94 L48.52,35.95 L61.24,22.35 C62.9906281,20.5322563 65.8599794,20.4090326 67.76,22.07 C68.6588554,22.8582893 69.2009346,23.9764181 69.2630794,25.1703523 C69.3252243,26.3642866 68.9021582,27.5326517 68.09,28.41 L67.13,29.45 L57.58,39.65 L65.31,39.65 L68.64,36.1 L70.27,34.35 L72.3,32.19 L72.32,32.16 L81.39,22.46 C83.1340466,20.6448261 86.0014849,20.5343701 87.88,22.21 C88.7722733,22.9916115 89.3138136,24.098414 89.3833594,25.2825725 C89.4529052,26.4667311 89.0446464,27.6293154 88.25,28.51 L77.83,39.65 L85.56,39.65 L88.96,36.02 L92.41,32.32 L92.41,32.33 L92.47,32.26 L93.94,30.7 C95.4413639,36.2196131 100.469962,40.0372427 106.19,40 C109.69,40 112.94,38.64 115.35,36.18 L114.67,35.5 L115.4,36.13 L120.41,30.65 C121.894273,36.1967032 126.938279,40.0403429 132.68,40 L132.68,34.43 C128.89893,34.4744951 125.79486,31.4509338 125.74,27.67 L125.74,20.7 L132.68,20.7 L132.68,15.13 L125.74,15.13 L125.74,5.6 L120.02,5.6 L120.02,22.72 L111.13,32.44 C109.321578,34.2316043 106.680264,34.8948081 104.24,34.17 L116.94,20.63 L114.92,18.75 C112.544764,16.5533051 109.425287,15.3383886 106.19,15.35 C102.37,15.35 98.95,17.02 96.63,19.64 L96.59,19.6 L94.4,21.94 C93.8217938,20.4695338 92.9033697,19.1570098 91.72,18.11 C89.6723185,16.3012988 86.9987508,15.364653 84.27,15.5 C81.7640441,15.6065515 79.3810188,16.6151643 77.56,18.34 L77.55,18.34 L77.37,18.52 L77.21,18.67 L77.14,18.75 L77.11,18.78 L74.29,21.79 C73.7117938,20.3195338 72.7933697,19.0070098 71.61,17.96 C69.5618687,16.1530426 66.8876863,15.2197709 64.16,15.36 C61.4864996,15.4691195 58.9579184,16.604474 57.1,18.53 L57.02,18.61 L56.99,18.64 L51.39,24.62 C49.8744959,19.1198769 44.8549711,15.322426 39.15,15.36 C35.28,15.36 31.82,17.06 29.5,19.72 L24.96,24.56 L20.19,29.66 L17.61,32.42 C16.2940985,33.7245339 14.5129099,34.4514027 12.66,34.44 C8.87893002,34.4844951 5.77485966,31.4609338 5.72,27.68 C5.78030946,23.9029924 8.88277348,20.8854662 12.66,20.93 C15.3963139,20.9250326 17.8846598,22.5149177 19.03,25 L23.07,20.68 C20.6575616,17.3356387 16.7836628,15.355894 12.66,15.36 C5.68,15.35 0,20.88 0,27.67 C0,34.47 5.68,40 12.66,40 M144.82,4.63 C145.465325,5.57016054 146.291384,6.3724233 147.25,6.99 C146.291217,7.60736639 145.46512,8.40966626 144.82,9.35 C144.177191,8.41390481 143.354555,7.61506314 142.4,7 C143.358951,6.38284445 144.185086,5.58050734 144.83,4.64 M143.39,13.99 L146.27,13.99 C146.27,10.91 148.84,8.39 152.01,8.39 L152.01,5.6 C148.876781,5.63892402 146.303891,3.13315376 146.26,0 L143.38,0 C143.38,3.08 140.81,5.6 137.64,5.6 L137.64,8.39 C140.81,8.39 143.39,10.89 143.39,13.98" id="Shape" fill="#00033E"></path>
    </g>
</svg>